<mxfile host="app.diagrams.net" modified="2023-02-09T14:08:14.323Z" agent="5.0 (Macintosh; Intel Mac OS X 10_15_7) AppleWebKit/537.36 (KHTML, like Gecko) Chrome/109.0.0.0 Safari/537.36" etag="UAvGVmpBUPyXlBQnHULI" version="20.8.19" type="github">
  <diagram name="Page-1" id="b5b7bab2-c9e2-2cf4-8b2a-24fd1a2a6d21">
    <mxGraphModel dx="1706" dy="1253" grid="1" gridSize="10" guides="1" tooltips="1" connect="1" arrows="1" fold="1" page="1" pageScale="1" pageWidth="827" pageHeight="1169" background="none" math="0" shadow="0">
      <root>
        <mxCell id="0" />
        <mxCell id="1" parent="0" />
        <mxCell id="6e0c8c40b5770093-72" value="" style="shape=folder;fontStyle=1;spacingTop=10;tabWidth=194;tabHeight=22;tabPosition=left;html=1;rounded=0;shadow=0;comic=0;labelBackgroundColor=none;strokeWidth=1;fillColor=none;fontFamily=Verdana;fontSize=10;align=center;" parent="1" vertex="1">
          <mxGeometry x="326.5" y="114.5" width="663.5" height="625.5" as="geometry" />
        </mxCell>
        <mxCell id="6e0c8c40b5770093-73" value="FitSize" style="text;html=1;align=left;verticalAlign=top;spacingTop=-4;fontSize=10;fontFamily=Verdana" parent="1" vertex="1">
          <mxGeometry x="327.5" y="114.5" width="130" height="20" as="geometry" />
        </mxCell>
        <mxCell id="RonL1pnyRKDybuBYts55-8" value="" style="group" vertex="1" connectable="0" parent="1">
          <mxGeometry x="362.25" y="160" width="589.5" height="240" as="geometry" />
        </mxCell>
        <mxCell id="6e0c8c40b5770093-33" value="" style="shape=folder;fontStyle=1;spacingTop=10;tabWidth=123;tabHeight=24;tabPosition=left;html=1;rounded=0;shadow=0;comic=0;labelBackgroundColor=none;strokeColor=#000000;strokeWidth=1;fillColor=#ffffff;fontFamily=Verdana;fontSize=10;fontColor=#000000;align=center;" parent="RonL1pnyRKDybuBYts55-8" vertex="1">
          <mxGeometry width="589.5" height="240" as="geometry" />
        </mxCell>
        <mxCell id="RonL1pnyRKDybuBYts55-10" style="edgeStyle=orthogonalEdgeStyle;rounded=0;orthogonalLoop=1;jettySize=auto;html=1;exitX=0;exitY=0;exitDx=81;exitDy=17;exitPerimeter=0;entryX=0.5;entryY=1;entryDx=0;entryDy=0;dashed=1;" edge="1" parent="RonL1pnyRKDybuBYts55-8" source="6e0c8c40b5770093-43" target="RonL1pnyRKDybuBYts55-9">
          <mxGeometry relative="1" as="geometry" />
        </mxCell>
        <mxCell id="6e0c8c40b5770093-43" value="polls (data API)" style="shape=folder;fontStyle=1;spacingTop=10;tabWidth=50;tabHeight=17;tabPosition=left;html=1;rounded=0;shadow=0;comic=0;labelBackgroundColor=none;strokeColor=#000000;strokeWidth=1;fillColor=#ffffff;fontFamily=Verdana;fontSize=10;fontColor=#000000;align=center;" parent="RonL1pnyRKDybuBYts55-8" vertex="1">
          <mxGeometry x="70" y="130" width="112" height="70" as="geometry" />
        </mxCell>
        <mxCell id="RonL1pnyRKDybuBYts55-1" value="Django Server" style="text;strokeColor=none;align=center;fillColor=none;html=1;verticalAlign=middle;whiteSpace=wrap;rounded=0;" vertex="1" parent="RonL1pnyRKDybuBYts55-8">
          <mxGeometry width="90" height="30" as="geometry" />
        </mxCell>
        <mxCell id="RonL1pnyRKDybuBYts55-5" value="" style="group" vertex="1" connectable="0" parent="RonL1pnyRKDybuBYts55-8">
          <mxGeometry x="279.5" y="50" width="290" height="135" as="geometry" />
        </mxCell>
        <mxCell id="6e0c8c40b5770093-45" value="" style="shape=folder;fontStyle=1;spacingTop=10;tabWidth=70;tabHeight=18;tabPosition=left;html=1;rounded=0;shadow=0;comic=0;labelBackgroundColor=none;strokeColor=#000000;strokeWidth=1;fillColor=#ffffff;fontFamily=Verdana;fontSize=10;fontColor=#000000;align=center;" parent="RonL1pnyRKDybuBYts55-5" vertex="1">
          <mxGeometry x="-20" y="7.25" width="310" height="127.75" as="geometry" />
        </mxCell>
        <mxCell id="RonL1pnyRKDybuBYts55-3" value="keypoints" style="text;strokeColor=none;align=center;fillColor=none;html=1;verticalAlign=middle;whiteSpace=wrap;rounded=0;" vertex="1" parent="RonL1pnyRKDybuBYts55-5">
          <mxGeometry x="-31" width="93.46153846153847" height="30" as="geometry" />
        </mxCell>
        <mxCell id="RonL1pnyRKDybuBYts55-4" value="AI code&lt;br&gt;(run_no_det.py)" style="shape=folder;fontStyle=1;spacingTop=10;tabWidth=50;tabHeight=17;tabPosition=left;html=1;rounded=0;shadow=0;comic=0;labelBackgroundColor=none;strokeColor=#000000;strokeWidth=1;fillColor=#ffffff;fontFamily=Verdana;fontSize=10;fontColor=#000000;align=center;" vertex="1" parent="RonL1pnyRKDybuBYts55-5">
          <mxGeometry x="-0.004615384615384244" y="45" width="116.3076923076923" height="70" as="geometry" />
        </mxCell>
        <mxCell id="RonL1pnyRKDybuBYts55-7" style="edgeStyle=orthogonalEdgeStyle;rounded=0;orthogonalLoop=1;jettySize=auto;html=1;exitX=0;exitY=0;exitDx=0;exitDy=43.5;exitPerimeter=0;entryX=0;entryY=0;entryDx=116.3076923076923;entryDy=43.5;entryPerimeter=0;dashed=1;startArrow=block;startFill=1;" edge="1" parent="RonL1pnyRKDybuBYts55-5" source="RonL1pnyRKDybuBYts55-6" target="RonL1pnyRKDybuBYts55-4">
          <mxGeometry relative="1" as="geometry" />
        </mxCell>
        <mxCell id="RonL1pnyRKDybuBYts55-6" value="keypoints API" style="shape=folder;fontStyle=1;spacingTop=10;tabWidth=50;tabHeight=17;tabPosition=left;html=1;rounded=0;shadow=0;comic=0;labelBackgroundColor=none;strokeColor=#000000;strokeWidth=1;fillColor=#ffffff;fontFamily=Verdana;fontSize=10;fontColor=#000000;align=center;" vertex="1" parent="RonL1pnyRKDybuBYts55-5">
          <mxGeometry x="153.69538461538468" y="45" width="116.3076923076923" height="70" as="geometry" />
        </mxCell>
        <mxCell id="RonL1pnyRKDybuBYts55-9" value="SQLite" style="shape=datastore;whiteSpace=wrap;html=1;" vertex="1" parent="RonL1pnyRKDybuBYts55-8">
          <mxGeometry x="95" y="40" width="60" height="60" as="geometry" />
        </mxCell>
        <mxCell id="RonL1pnyRKDybuBYts55-12" value="" style="group" vertex="1" connectable="0" parent="1">
          <mxGeometry x="440" y="500" width="480" height="240" as="geometry" />
        </mxCell>
        <mxCell id="6e0c8c40b5770093-47" value="" style="shape=folder;fontStyle=1;spacingTop=10;tabWidth=88;tabHeight=30;tabPosition=left;html=1;rounded=0;shadow=0;comic=0;labelBackgroundColor=none;strokeWidth=1;fontFamily=Verdana;fontSize=10;align=center;" parent="RonL1pnyRKDybuBYts55-12" vertex="1">
          <mxGeometry width="380" height="200" as="geometry" />
        </mxCell>
        <mxCell id="RonL1pnyRKDybuBYts55-11" value="Flutter Client" style="text;strokeColor=none;align=center;fillColor=none;html=1;verticalAlign=middle;whiteSpace=wrap;rounded=0;movable=1;resizable=1;rotatable=1;deletable=1;editable=1;locked=0;connectable=1;" vertex="1" parent="RonL1pnyRKDybuBYts55-12">
          <mxGeometry width="90" height="30" as="geometry" />
        </mxCell>
        <mxCell id="RonL1pnyRKDybuBYts55-15" style="edgeStyle=orthogonalEdgeStyle;rounded=0;orthogonalLoop=1;jettySize=auto;html=1;exitX=0;exitY=0;exitDx=0;exitDy=43.5;exitPerimeter=0;entryX=0;entryY=0;entryDx=112;entryDy=43.5;entryPerimeter=0;dashed=1;startArrow=none;startFill=0;" edge="1" parent="RonL1pnyRKDybuBYts55-12" source="6e0c8c40b5770093-50" target="6e0c8c40b5770093-49">
          <mxGeometry relative="1" as="geometry" />
        </mxCell>
        <mxCell id="6e0c8c40b5770093-50" value="Cloth scanner" style="shape=folder;fontStyle=1;spacingTop=10;tabWidth=50;tabHeight=17;tabPosition=left;html=1;rounded=0;shadow=0;comic=0;labelBackgroundColor=none;strokeWidth=1;fontFamily=Verdana;fontSize=10;align=center;" parent="RonL1pnyRKDybuBYts55-12" vertex="1">
          <mxGeometry x="220" y="80" width="112" height="70" as="geometry" />
        </mxCell>
        <mxCell id="6e0c8c40b5770093-49" value="Catalog" style="shape=folder;fontStyle=1;spacingTop=10;tabWidth=50;tabHeight=17;tabPosition=left;html=1;rounded=0;shadow=0;comic=0;labelBackgroundColor=none;strokeWidth=1;fontFamily=Verdana;fontSize=10;align=center;" parent="RonL1pnyRKDybuBYts55-12" vertex="1">
          <mxGeometry x="50" y="80" width="112" height="70" as="geometry" />
        </mxCell>
        <mxCell id="RonL1pnyRKDybuBYts55-13" style="edgeStyle=orthogonalEdgeStyle;rounded=0;orthogonalLoop=1;jettySize=auto;html=1;exitX=0;exitY=0;exitDx=81;exitDy=17;exitPerimeter=0;dashed=1;startArrow=block;startFill=1;" edge="1" parent="1" source="6e0c8c40b5770093-50" target="RonL1pnyRKDybuBYts55-6">
          <mxGeometry relative="1" as="geometry">
            <Array as="points">
              <mxPoint x="741" y="570" />
              <mxPoint x="854" y="570" />
            </Array>
          </mxGeometry>
        </mxCell>
        <mxCell id="RonL1pnyRKDybuBYts55-16" style="edgeStyle=orthogonalEdgeStyle;rounded=0;orthogonalLoop=1;jettySize=auto;html=1;exitX=0;exitY=0;exitDx=81;exitDy=17;exitPerimeter=0;entryX=0.75;entryY=1;entryDx=0;entryDy=0;entryPerimeter=0;dashed=1;startArrow=block;startFill=1;" edge="1" parent="1" source="6e0c8c40b5770093-49" target="6e0c8c40b5770093-43">
          <mxGeometry relative="1" as="geometry" />
        </mxCell>
      </root>
    </mxGraphModel>
  </diagram>
</mxfile>
